<svg xmlns="http://www.w3.org/2000/svg" width="300" height="180" viewBox="0 0 300 180" role="img" aria-labelledby="t">
<title id="t">Most used languages by code size: TypeScript 30.8%, Python 23.7%, PHP 22.1%, JavaScript 12.8%, CSS 5.9%, HTML 2.8%</title>
<rect width="300" height="180" rx="6" fill="#1a1b27"/>
<text x="25" y="35" fill="#70a5fd" font-size="18" font-weight="600" font-family="'Segoe UI', Ubuntu, 'Helvetica Neue', Sans-Serif">Most Used Languages</text>
<mask id="m"><rect x="25" y="50" width="250" height="8" rx="4" fill="#fff"/></mask>
<g mask="url(#m)"><rect x="25.00" y="50" width="76.94" height="8" fill="#3178c6"/><rect x="101.94" y="50" width="59.13" height="8" fill="#3572A5"/><rect x="161.07" y="50" width="55.16" height="8" fill="#4F5D95"/><rect x="216.23" y="50" width="31.93" height="8" fill="#f1e05a"/><rect x="248.16" y="50" width="14.77" height="8" fill="#663399"/><rect x="262.93" y="50" width="6.92" height="8" fill="#e34c26"/></g>
<circle cx="30" cy="81" r="5" fill="#3178c6"/><text x="41" y="85" fill="#38bdae" font-size="12" font-family="'Segoe UI', Ubuntu, 'Helvetica Neue', Sans-Serif">TypeScript 30.8%</text><circle cx="160" cy="81" r="5" fill="#3572A5"/><text x="171" y="85" fill="#38bdae" font-size="12" font-family="'Segoe UI', Ubuntu, 'Helvetica Neue', Sans-Serif">Python 23.7%</text><circle cx="30" cy="106" r="5" fill="#4F5D95"/><text x="41" y="110" fill="#38bdae" font-size="12" font-family="'Segoe UI', Ubuntu, 'Helvetica Neue', Sans-Serif">PHP 22.1%</text><circle cx="160" cy="106" r="5" fill="#f1e05a"/><text x="171" y="110" fill="#38bdae" font-size="12" font-family="'Segoe UI', Ubuntu, 'Helvetica Neue', Sans-Serif">JavaScript 12.8%</text><circle cx="30" cy="131" r="5" fill="#663399"/><text x="41" y="135" fill="#38bdae" font-size="12" font-family="'Segoe UI', Ubuntu, 'Helvetica Neue', Sans-Serif">CSS 5.9%</text><circle cx="160" cy="131" r="5" fill="#e34c26"/><text x="171" y="135" fill="#38bdae" font-size="12" font-family="'Segoe UI', Ubuntu, 'Helvetica Neue', Sans-Serif">HTML 2.8%</text>
<text x="25" y="168" fill="#a9b1d6" font-size="10" font-family="'Segoe UI', Ubuntu, 'Helvetica Neue', Sans-Serif">Public repos by code size · SpecKit scripts left out</text>
</svg>
